<svg width="16" height="16" viewBox="0 0 16 16" fill="none" xmlns="http://www.w3.org/2000/svg">
<path d="M13.6983 1.18576C13.2173 0.85396 12.5538 0.905111 12.1267 1.3322L11.2344 2.22453L10.8808 2.57808L11.2344 2.93163L12.648 4.34525L13.0022 4.69941L13.3557 4.34464L14.2455 3.45174C14.246 3.45128 14.2465 3.45083 14.2469 3.45037C14.7326 2.96835 14.7294 2.18523 14.2474 1.70324L13.8764 1.3322L13.73 1.18576H13.6983ZM5.76221 7.91507C5.76213 7.91534 5.76206 7.91561 5.76198 7.91589L5.25032 9.70821L5.0034 10.5732L5.86837 10.3263L7.66069 9.8146C7.66095 9.81453 7.6612 9.81446 7.66146 9.81438C7.86282 9.75745 8.04794 9.64932 8.19729 9.50001C8.19733 9.49997 8.19738 9.49992 8.19742 9.49988L12.3155 5.38489L12.6693 5.03134L12.3156 4.67765L10.902 3.26404L10.5483 2.91035L10.1948 3.26417L6.43316 7.02857L6.43023 7.02563L6.0767 7.37916C5.92734 7.52852 5.81917 7.71367 5.76221 7.91507ZM11.7942 0.999888L11.7943 0.999799C12.4607 0.3334 13.5424 0.3334 14.2088 0.999799L14.5798 1.37083C15.2462 2.0372 15.2462 3.11883 14.5799 3.78524C14.5799 3.78527 14.5799 3.7853 14.5798 3.78533L8.52992 9.83219L8.52983 9.83228C8.32649 10.0356 8.07268 10.1854 7.79154 10.2665C7.79146 10.2665 7.79137 10.2665 7.79129 10.2665L4.72596 11.1432C4.72593 11.1432 4.72591 11.1432 4.72588 11.1432C4.72587 11.1432 4.72585 11.1433 4.72583 11.1433C4.64187 11.1672 4.55414 11.1443 4.4932 11.0834C4.43226 11.0224 4.40938 10.9347 4.43332 10.8507C4.43334 10.8507 4.43335 10.8507 4.43336 10.8506L5.31032 7.78434L5.31082 7.78258C5.38844 7.50736 5.5371 7.25398 5.74421 7.04684C5.74424 7.04681 5.74427 7.04678 5.7443 7.04675L11.7942 0.999888ZM0.5 4.54058C0.5 3.32645 1.48431 2.34214 2.69844 2.34214H6.13281C6.2645 2.34214 6.36875 2.44639 6.36875 2.57808C6.36875 2.70977 6.2645 2.81402 6.13281 2.81402H2.69844C1.74462 2.81402 0.971875 3.58676 0.971875 4.54058V12.8812C0.971875 13.835 1.74462 14.6078 2.69844 14.6078H11.0391C11.9929 14.6078 12.7656 13.835 12.7656 12.8812V9.44683C12.7656 9.31514 12.8699 9.21089 13.0016 9.21089C13.1333 9.21089 13.2375 9.31514 13.2375 9.44683V12.8812C13.2375 14.0953 12.2532 15.0796 11.0391 15.0796H2.69844C1.48431 15.0796 0.5 14.0953 0.5 12.8812V4.54058Z" fill="black" stroke="black"/>
</svg>
